<svg data-v-423bf9ae="" xmlns="http://www.w3.org/2000/svg" viewBox="0 0 400 90" class="iconLeft"><!----><!----><!----><g data-v-423bf9ae="" id="bb00d75e-08b2-4efe-a954-5adb4df68f31" fill="#10312F" transform="matrix(4.542013612924749,0,0,4.542013612924749,172.19002514806206,0.8743379018616366)"><path d="M5.22 3.75Q7.07 3.75 8.12 4.63Q9.17 5.50 9.17 7.06L9.17 7.06Q9.17 8.60 8.12 9.47Q7.07 10.35 5.22 10.35L5.22 10.35L2.42 10.35L2.42 13.55L1.71 13.55L1.71 3.75L5.22 3.75ZM5.22 9.70Q6.79 9.70 7.62 9.02Q8.44 8.33 8.44 7.06L8.44 7.06Q8.44 5.78 7.62 5.09Q6.79 4.40 5.22 4.40L5.22 4.40L2.42 4.40L2.42 9.70L5.22 9.70ZM17.50 9.87L17.49 10.07L11.20 10.07Q11.23 10.92 11.63 11.58Q12.04 12.25 12.73 12.61Q13.43 12.98 14.29 12.98L14.29 12.98Q15.01 12.98 15.62 12.72Q16.23 12.46 16.63 11.96L16.63 11.96L17.04 12.42Q16.56 12.99 15.84 13.30Q15.12 13.61 14.28 13.61L14.28 13.61Q13.19 13.61 12.33 13.13Q11.48 12.66 11.00 11.82Q10.51 10.98 10.51 9.90L10.51 9.90Q10.51 8.83 10.97 7.99Q11.42 7.14 12.22 6.66Q13.02 6.19 14.01 6.19L14.01 6.19Q15.01 6.19 15.80 6.66Q16.59 7.13 17.05 7.97Q17.50 8.81 17.50 9.87L17.50 9.87ZM14.01 6.80Q13.24 6.80 12.63 7.15Q12.01 7.49 11.64 8.11Q11.27 8.74 11.21 9.52L11.21 9.52L16.81 9.52Q16.77 8.74 16.39 8.12Q16.02 7.50 15.40 7.15Q14.78 6.80 14.01 6.80L14.01 6.80ZM21.92 6.19Q23.28 6.19 24.01 6.88Q24.74 7.57 24.74 8.92L24.74 8.92L24.74 13.55L24.07 13.55L24.07 12.25Q23.72 12.89 23.04 13.25Q22.37 13.61 21.43 13.61L21.43 13.61Q20.22 13.61 19.51 13.03Q18.80 12.46 18.80 11.52L18.80 11.52Q18.80 10.61 19.45 10.04Q20.10 9.48 21.53 9.48L21.53 9.48L24.04 9.48L24.04 8.89Q24.04 7.87 23.48 7.34Q22.93 6.80 21.87 6.80L21.87 6.80Q21.14 6.80 20.47 7.06Q19.81 7.31 19.35 7.73L19.35 7.73L19.00 7.22Q19.54 6.73 20.31 6.46Q21.08 6.19 21.92 6.19L21.92 6.19ZM21.53 13.03Q22.44 13.03 23.08 12.61Q23.72 12.19 24.04 11.40L24.04 11.40L24.04 10.02L21.55 10.02Q20.47 10.02 19.98 10.42Q19.50 10.81 19.50 11.49L19.50 11.49Q19.50 12.21 20.03 12.62Q20.57 13.03 21.53 13.03L21.53 13.03ZM33.33 13.55L30.23 9.65L28.32 11.38L28.32 13.55L27.62 13.55L27.62 3.16L28.32 3.16L28.32 10.51L33.00 6.24L33.89 6.24L30.74 9.20L34.20 13.55L33.33 13.55ZM35.73 13.55L35.73 6.24L36.43 6.24L36.43 13.55L35.73 13.55ZM36.08 4.47Q35.84 4.47 35.67 4.30Q35.50 4.14 35.50 3.91L35.50 3.91Q35.50 3.67 35.67 3.50Q35.84 3.33 36.08 3.33L36.08 3.33Q36.32 3.33 36.48 3.49Q36.65 3.65 36.65 3.89L36.65 3.89Q36.65 4.13 36.48 4.30Q36.32 4.47 36.08 4.47L36.08 4.47ZM41.58 3.71Q40.21 3.71 40.21 5.18L40.21 5.18L40.21 6.24L42.55 6.24L42.55 6.85L40.22 6.85L40.22 13.55L39.52 13.55L39.52 6.85L38.18 6.85L38.18 6.24L39.52 6.24L39.52 5.12Q39.52 4.20 40.05 3.65Q40.59 3.11 41.55 3.11L41.55 3.11Q41.97 3.11 42.36 3.23Q42.74 3.35 42.99 3.58L42.99 3.58L42.71 4.12Q42.27 3.71 41.58 3.71L41.58 3.71ZM49.27 6.24L49.98 6.24L46.23 14.55Q45.81 15.51 45.25 15.92Q44.70 16.32 43.95 16.32L43.95 16.32Q43.44 16.32 43.00 16.16Q42.56 15.99 42.25 15.67L42.25 15.67L42.60 15.13Q43.16 15.71 43.96 15.71L43.96 15.71Q44.49 15.71 44.87 15.41Q45.25 15.12 45.57 14.41L45.57 14.41L45.96 13.52L42.67 6.24L43.41 6.24L46.34 12.78L49.27 6.24Z"></path></g><defs data-v-423bf9ae=""><linearGradient data-v-423bf9ae="" gradientTransform="rotate(25)" id="7d99af60-4a32-4898-9ae4-ccd0b5205517" x1="0%" y1="0%" x2="100%" y2="0%"><stop data-v-423bf9ae="" offset="0%" style="stop-color: rgb(1, 100, 139); stop-opacity: 1;"></stop><stop data-v-423bf9ae="" offset="100%" style="stop-color: rgb(91, 208, 164); stop-opacity: 1;"></stop></linearGradient></defs><g data-v-423bf9ae="" id="afc0a28b-8e0a-46f2-a6ed-f604c91728bc" transform="matrix(12.931034411885085,0,0,12.931034411885085,0.02156097575681315,4.76837158203125e-7)" stroke="none" fill="url(#7d99af60-4a32-4898-9ae4-ccd0b5205517)"><path d="M0 6.96l3.89-4.31.01-.02.01-.01.03-.03L5.91 5.2 5.1 3.91 7 1.11l3.7 5.12-1.9-3.26.9-1.02 2.67 2.46-2.66-3.28-1.22 1.39L7.04 0 4.86 3.42l-.91-1.66z"></path></g><!----></svg>